<svg width="58" height="58" viewBox="0 0 58 58" fill="none" xmlns="http://www.w3.org/2000/svg">
<path d="M47.12 58H10.88C7.99444 58 5.22707 56.8537 3.18668 54.8133C1.14628 52.7729 0 50.0056 0 47.12L0 10.88C0 7.99444 1.14628 5.22707 3.18668 3.18668C5.22707 1.14628 7.99444 0 10.88 0L47.12 0C50.0056 0 52.7729 1.14628 54.8133 3.18668C56.8537 5.22707 58 7.99444 58 10.88V47.12C58 50.0056 56.8537 52.7729 54.8133 54.8133C52.7729 56.8537 50.0056 58 47.12 58Z" fill="#00BE85" fill-opacity="0.08"/>
<path fill-rule="evenodd" clip-rule="evenodd" d="M16.8984 23.4599C16.8984 24.5556 17.2234 25.6267 17.8321 26.5378C18.4408 27.4488 19.3061 28.1589 20.3184 28.5782C21.3307 28.9975 22.4446 29.1072 23.5192 28.8935C24.5939 28.6797 25.581 28.1521 26.3558 27.3773C27.1306 26.6025 27.6582 25.6154 27.872 24.5407C28.0858 23.4661 27.976 22.3522 27.5567 21.3399C27.1374 20.3276 26.4273 19.4623 25.5163 18.8536C24.6052 18.2448 23.5341 17.9199 22.4384 17.9199C20.9691 17.9199 19.56 18.5036 18.5211 19.5426C17.4821 20.5815 16.8984 21.9906 16.8984 23.4599Z" fill="#00AB6B"/>
<path fill-rule="evenodd" clip-rule="evenodd" d="M14.1287 40.0797C13.6885 40.0797 13.2663 39.9048 12.955 39.5935C12.6436 39.2822 12.4688 38.86 12.4688 38.4197V37.3097C12.4688 35.6946 13.1104 34.1455 14.2525 33.0034C15.3946 31.8614 16.9436 31.2197 18.5587 31.2197H26.3187C27.9339 31.2197 29.4829 31.8614 30.625 33.0034C31.7671 34.1455 32.4087 35.6946 32.4087 37.3097V38.4197C32.4087 38.86 32.2339 39.2822 31.9225 39.5935C31.6112 39.9048 31.189 40.0797 30.7487 40.0797H14.1287Z" fill="#00AB6B"/>
<path fill-rule="evenodd" clip-rule="evenodd" d="M39.4411 31.2197H31.6211C32.4987 31.9729 33.2025 32.9073 33.6842 33.9587C34.1659 35.01 34.4139 36.1533 34.4111 37.3097V38.4197C34.4105 38.9981 34.2698 39.5676 34.0011 40.0797H43.8811C44.3214 40.0797 44.7436 39.9048 45.0549 39.5935C45.3662 39.2822 45.5411 38.86 45.5411 38.4197V37.3097C45.5411 36.5091 45.3832 35.7164 45.0766 34.9769C44.7699 34.2374 44.3204 33.5656 43.7538 32.9999C43.1873 32.4343 42.5147 31.9859 41.7747 31.6804C41.0347 31.375 40.2417 31.2184 39.4411 31.2197Z" fill="#70EABE"/>
<path fill-rule="evenodd" clip-rule="evenodd" d="M30 23.4599C30 24.5556 30.3249 25.6267 30.9337 26.5378C31.5424 27.4488 32.4076 28.1589 33.4199 28.5782C34.4322 28.9975 35.5461 29.1072 36.6208 28.8935C37.6955 28.6797 38.6826 28.1521 39.4574 27.3773C40.2322 26.6025 40.7598 25.6154 40.9735 24.5407C41.1873 23.4661 41.0776 22.3522 40.6583 21.3399C40.239 20.3276 39.5289 19.4623 38.6179 18.8536C37.7068 18.2448 36.6357 17.9199 35.54 17.9199C34.0707 17.9199 32.6616 18.5036 31.6226 19.5426C30.5837 20.5815 30 21.9906 30 23.4599Z" fill="#70EABE"/>
</svg>
